 <svg version="1.0" xmlns="http://www.w3.org/2000/svg" width="700.000000pt" height="579.000000pt" viewBox="0 0 700.000000 579.000000" preserveAspectRatio="xMidYMid meet">
<metadata>
Created by potrace 1.12, written by Peter Selinger 2001-2015
</metadata>
<g transform="translate(0.000000,579.000000) scale(0.100000,-0.100000)" fill="#000000" stroke="none">
<path d="M3545 5723 c-11 -2 -36 -8 -55 -13 -19 -5 -105 -26 -190 -46 -254
-59 -488 -114 -693 -164 -70 -17 -147 -35 -170 -40 -84 -18 -183 -41 -217 -50
-62 -17 -199 -50 -330 -80 -19 -4 -87 -20 -150 -35 -63 -15 -142 -34 -175 -41
-59 -13 -166 -39 -216 -52 -15 -4 -51 -37 -85 -77 -32 -38 -117 -138 -189
-221 -266 -309 -446 -524 -443 -530 2 -4 104 -9 228 -12 124 -2 229 -8 234
-13 6 -5 5 -23 -2 -46 -6 -21 -20 -76 -32 -123 -11 -47 -32 -128 -46 -180 -14
-52 -32 -120 -39 -150 -18 -74 -98 -383 -142 -550 -20 -74 -38 -152 -41 -173
-2 -20 -8 -39 -13 -42 -4 -3 -59 -10 -121 -16 -363 -32 -373 -34 -373 -49 0
-17 0 -17 140 -2 232 26 325 33 334 28 6 -4 6 -18 0 -39 -10 -31 -85 -322
-133 -511 -12 -50 -29 -93 -37 -97 -8 -4 -48 -21 -89 -37 -132 -53 -190 -83
-190 -98 0 -18 -2 -18 46 5 40 19 91 42 178 80 48 21 75 20 58 -2 -9 -13 -27
-71 -41 -132 -5 -22 -27 -112 -50 -200 l-41 -160 2 -905 3 -905 3100 0 3100 0
3 907 c2 799 0 914 -14 965 -8 32 -24 94 -35 138 -11 44 -27 105 -35 135 -8
30 -20 73 -25 95 -6 22 -15 48 -20 57 -10 20 6 34 24 20 7 -5 23 -13 37 -17
14 -4 67 -27 119 -51 51 -24 95 -44 97 -44 13 0 1 32 -13 37 -10 3 -54 23 -98
43 -44 21 -98 44 -120 51 -53 18 -62 25 -68 57 -3 15 -24 99 -47 187 -23 88
-45 176 -50 195 -12 53 -37 151 -49 187 -6 20 -6 35 0 39 10 6 168 -8 354 -31
70 -9 113 -11 119 -5 25 25 12 27 -382 60 -56 5 -107 12 -112 15 -6 3 -10 15
-10 27 0 11 -12 63 -26 116 -40 152 -115 441 -129 502 -12 52 -24 96 -110 420
-48 180 -51 199 -34 204 8 3 115 7 239 10 124 2 226 5 228 5 1 1 -64 79 -146
174 -81 94 -161 188 -177 208 -17 20 -109 128 -206 240 -196 227 -166 206
-354 249 -49 11 -117 27 -150 35 -33 8 -100 23 -150 35 -49 11 -106 25 -127
30 -20 6 -56 14 -80 19 -46 10 -150 36 -208 51 -33 9 -67 17 -231 54 -104 23
-201 46 -239 56 -19 6 -75 19 -125 30 -49 11 -106 25 -125 30 -19 5 -75 19
-125 30 -165 38 -390 90 -425 100 -57 15 -74 18 -95 13z m320 -102 c138 -32
432 -102 655 -155 223 -53 515 -122 650 -155 135 -32 328 -78 429 -102 l183
-43 68 -76 c222 -246 579 -675 570 -684 -5 -5 -94 -11 -197 -14 -103 -2 -196
-9 -207 -14 -16 -9 -18 -18 -13 -62 6 -55 275 -1102 314 -1220 6 -18 2 -19
-63 -12 -286 32 -1323 43 -1599 17 -215 -20 -321 -31 -365 -40 -25 -5 -73 -15
-107 -22 -35 -6 -63 -17 -63 -23 0 -6 26 -29 58 -51 206 -142 756 -599 745
-618 -2 -4 -224 -7 -491 -7 l-487 1 0 -123 0 -123 -170 0 -170 0 0 554 0 554
145 54 c173 66 417 161 445 173 11 5 58 24 105 41 127 47 144 53 158 62 9 6
12 102 12 421 0 227 -3 440 -6 474 -6 58 -8 61 -38 66 -32 6 -430 52 -709 83
l-158 17 -337 -38 c-388 -44 -543 -64 -551 -72 -11 -11 -13 -936 -2 -947 6 -6
25 -16 43 -22 64 -23 483 -186 503 -195 22 -10 168 -66 255 -97 l55 -20 0
-554 0 -554 -170 0 -170 0 0 123 0 123 -487 -1 c-293 0 -489 3 -492 9 -3 5 5
18 18 28 13 10 101 86 197 168 173 149 436 358 536 425 29 19 53 40 53 45 0 6
-28 17 -62 24 -35 7 -83 17 -108 22 -44 9 -140 19 -365 40 -275 26 -1278 16
-1595 -16 l-73 -7 8 23 c4 13 34 125 66 249 32 124 101 389 154 590 52 201 95
380 95 397 0 21 -6 36 -18 41 -9 5 -102 12 -205 14 -108 3 -192 9 -198 15 -7
7 87 123 294 364 167 195 315 364 328 376 18 17 100 39 349 98 179 42 379 90
445 106 66 16 208 50 315 75 107 25 269 63 360 85 91 22 291 69 445 105 154
36 282 68 285 71 9 9 80 -5 335 -66z m-1555 -2541 c231 -12 540 -42 540 -52 0
-4 -3 -8 -7 -8 -17 -1 -323 -40 -388 -50 -186 -28 -483 -96 -680 -153 -27 -9
-98 -29 -156 -46 -276 -79 -849 -285 -952 -342 -26 -14 -32 -5 -19 28 17 43
142 536 142 561 0 12 8 26 18 31 10 5 104 15 208 21 104 6 254 15 334 20 163
10 696 4 960 -10z m3530 5 c493 -24 500 -25 500 -68 0 -19 122 -501 146 -576
6 -19 4 -23 -7 -18 -261 113 -716 277 -994 356 -38 10 -118 33 -177 50 -195
56 -456 114 -633 141 -78 12 -373 49 -392 50 -7 0 -13 3 -13 8 0 12 361 44
650 57 375 17 582 17 920 0z m-2914 -93 c-4 -7 -69 -38 -131 -63 -49 -19 -885
-434 -1024 -508 -87 -46 -161 -79 -170 -76 -9 3 -23 -4 -35 -19 -12 -14 -104
-70 -206 -124 -212 -114 -475 -261 -570 -319 -36 -21 -73 -42 -82 -46 -19 -7
-188 20 -201 32 -4 4 20 110 53 237 33 126 58 239 55 251 -4 19 2 26 37 42 63
29 158 67 283 113 61 22 124 46 140 53 17 7 53 21 80 30 28 9 59 21 70 26 35
15 376 122 460 144 28 8 109 29 180 48 197 52 389 95 545 122 52 8 118 20 145
25 28 6 102 15 165 20 63 6 116 13 119 15 8 9 92 5 87 -3z m1489 -11 c61 -6
133 -15 160 -20 28 -6 93 -17 145 -27 160 -27 520 -110 655 -149 384 -112 501
-151 830 -278 312 -120 318 -123 310 -146 -6 -19 49 -255 96 -415 17 -55 18
-70 8 -77 -7 -4 -53 -15 -101 -24 l-88 -16 -108 64 c-59 35 -170 99 -247 142
-138 77 -176 98 -325 177 -148 79 -180 100 -191 119 -7 13 -16 18 -29 14 -11
-4 -63 18 -141 60 -113 60 -1007 505 -1054 524 -11 5 -40 17 -65 27 -25 9 -52
24 -60 32 -13 12 -8 13 40 9 30 -3 105 -10 165 -16z m-1587 -70 c-1 -5 -41
-37 -88 -71 -133 -99 -509 -417 -564 -479 -18 -20 -27 -21 -248 -21 -139 0
-228 4 -226 9 4 11 117 71 488 255 146 73 346 173 445 223 189 94 199 98 193
84z m2049 -276 c304 -152 553 -280 553 -285 0 -6 -87 -10 -226 -10 l-226 0
-131 118 c-135 120 -299 261 -347 297 -15 11 -63 47 -106 79 -43 32 -83 63
-88 67 -35 32 81 -23 571 -266z m-3136 -335 c52 -11 127 -27 167 -36 139 -29
139 -18 5 -146 -65 -62 -191 -186 -281 -276 -133 -133 -166 -161 -185 -157
-21 4 -157 31 -312 60 -38 8 -119 23 -180 35 -60 12 -129 24 -153 27 -23 3
-45 9 -48 14 -4 8 96 79 111 79 3 0 22 11 43 24 43 27 247 141 367 205 44 24
108 59 142 78 128 71 208 112 219 113 6 0 53 -9 105 -20z m3867 -36 c59 -32
112 -60 117 -64 6 -4 55 -31 110 -60 118 -62 453 -252 508 -287 22 -13 37 -26
35 -29 -3 -2 -97 -22 -209 -44 -112 -22 -226 -44 -254 -50 -27 -5 -96 -19
-153 -30 l-103 -20 -153 152 c-84 84 -210 208 -279 275 -84 80 -123 125 -115
129 14 9 342 82 371 83 10 1 67 -24 125 -55z m-3278 -89 c207 -41 399 -81 590
-121 41 -9 95 -20 120 -24 25 -5 153 -31 284 -59 l239 -49 241 50 c133 27 264
54 291 59 28 5 82 16 120 24 39 8 104 22 145 30 41 8 215 44 385 79 264 55
313 62 330 52 11 -8 139 -130 285 -274 256 -251 264 -260 240 -270 -14 -6
-101 -25 -195 -42 -93 -18 -237 -45 -320 -61 -82 -16 -186 -36 -230 -44 -44
-8 -111 -22 -150 -30 -38 -8 -155 -31 -260 -51 -236 -44 -327 -61 -634 -123
l-245 -48 -240 48 c-220 43 -377 74 -826 159 -213 41 -244 47 -330 65 -86 17
-202 40 -445 85 -93 17 -181 36 -194 41 -24 10 -16 19 189 222 291 289 347
339 368 333 9 -3 118 -26 242 -51z"></path>
<path d="M1985 4753 c-105 -55 -134 -176 -65 -271 53 -73 156 -91 237 -41 84
52 105 183 42 263 -47 60 -150 83 -214 49z"></path>
<path d="M4988 4750 c-20 -11 -50 -36 -65 -57 -24 -31 -28 -46 -28 -97 1 -74
22 -117 73 -151 77 -50 161 -43 225 22 45 44 61 91 53 148 -19 122 -151 191
-258 135z"></path>
<path d="M2510 4494 c-58 -8 -123 -16 -145 -19 -80 -11 -64 22 -282 -570 -46
-126 -111 -302 -143 -390 -32 -88 -75 -202 -95 -254 -25 -64 -33 -97 -26 -104
7 -7 12 -4 17 9 3 10 28 78 55 149 26 72 80 218 119 325 112 307 251 683 260
705 4 11 14 36 21 55 7 19 15 38 18 42 3 4 73 14 155 23 83 9 153 18 158 21
10 6 11 24 1 23 -5 -1 -55 -8 -113 -15z"></path>
<path d="M4490 4502 c0 -16 26 -22 174 -37 79 -9 146 -21 153 -28 6 -6 64
-154 128 -327 222 -600 346 -935 351 -949 3 -9 8 -11 14 -5 6 6 -4 45 -26 104
-19 52 -113 307 -209 565 -96 259 -186 503 -201 543 -16 44 -37 80 -50 89 -13
8 -78 20 -151 28 -70 8 -140 17 -155 21 -16 3 -28 1 -28 -4z"></path>
<path d="M3230 2360 c0 -6 48 -10 125 -10 77 0 125 4 125 10 0 6 -48 10 -125
10 -77 0 -125 -4 -125 -10z"></path>
<path d="M3650 2360 c0 -6 45 -10 115 -10 70 0 115 4 115 10 0 6 -45 10 -115
10 -70 0 -115 -4 -115 -10z"></path>
<path d="M1763 3033 c-34 -82 -73 -196 -69 -200 11 -11 26 11 40 55 8 26 26
77 40 115 27 69 17 96 -11 30z"></path>
<path d="M5356 3003 c14 -38 32 -89 40 -115 13 -43 29 -66 39 -56 4 4 -67 208
-80 228 -3 5 -10 10 -16 10 -5 0 3 -30 17 -67z"></path>
<path d="M1641 2708 c-109 -291 -132 -365 -102 -332 7 8 131 338 131 349 0 15
-22 1 -29 -17z"></path>
<path d="M5463 2713 c16 -55 120 -329 128 -337 19 -21 16 3 -12 84 -54 156
-101 270 -111 270 -6 0 -8 -8 -5 -17z"></path>
</g>
</svg>